<svg version="1.2" xmlns="http://www.w3.org/2000/svg" viewBox="0 0 512 512" width="1280" height="1280">
	<title>45c7108d-5257-428c-a4c8-610fdf0937ad-svg</title>
	<style>
		.s0 { fill: #ffffff } 
	</style>
	<g>
		<path class="s0" d="m246.3 64.8c-0.7 0.3-2.8 1.3-4.8 2.2-11.8 5.4-19.3 17.1-19.3 30.4 0 13.9 6.8 24.7 19.4 31 3.1 1.6 3.1 1.6 3.1 25.2 0 26.7 0.7 24.2-6.7 25.8-8.3 1.8-18.8 6.2-25.4 10.8-3.2 2.3-3.2 2.3-22.1-16.6-18.7-18.7-18.7-18.7-17.2-22.5 4-9.2 5.1-21.3 2.8-30.3-4.1-15.6-16.8-28.3-32.4-32.4-5.8-1.5-17.1-1.5-22.9 0-15.6 4.1-28.3 16.8-32.4 32.4-1.5 5.8-1.5 17.1 0 22.9 4.1 15.6 16.8 28.3 32.4 32.3 9 2.4 21.1 1.3 30.3-2.7 3.8-1.5 3.8-1.5 22.5 17.2 18.9 18.8 18.9 18.8 16.6 22.1-4.6 6.7-9 17.2-10.8 25.4-1.6 7.4 0.9 6.8-25.8 6.8-23.6 0-23.6 0-25.2-3.3-6.3-12.5-17.1-19.2-31-19.2-13.3 0-25 7.4-30.4 19.2-0.9 2-2 4.2-2.3 4.9-0.9 1.7-0.9 17.5 0 19.2 0.3 0.7 1.4 2.9 2.3 4.9 5.4 11.8 17.1 19.3 30.4 19.3 13.9 0 24.7-6.8 31-19.4 1.6-3.1 1.6-3.1 25.2-3.1 13.7 0 23.7 0.2 24 0.6 0.2 0.4 1.2 3.9 2.2 7.9 4.3 17 14.7 32.5 28.9 43.3 6.9 5.2 18.6 10.8 27.4 13 4.1 1.1 7.8 2.2 8.1 2.6 0.3 0.3 0.5 5.8 0.4 12.1-0.2 11.5-0.2 11.5-4.5 13.2-6.1 2.3-14.2 7.9-18.2 12.5-4.2 4.8-8.1 12.2-9.7 18.2-1.5 5.8-1.6 17.4-0.1 23.1 3.6 13.9 13.9 25.7 26.6 30.9 2.8 1.1 5.5 2.3 6.2 2.6 1.7 0.9 20.5 0.9 22.2 0 0.7-0.3 3.4-1.5 6.1-2.6 12.8-5.2 23.1-17 26.7-30.9 1.5-5.7 1.4-17.3-0.1-23.1-1.6-6-5.5-13.4-9.7-18.2-4-4.6-12.1-10.2-18.2-12.5-4.3-1.7-4.3-1.7-4.5-13.2-0.1-6.3 0.1-11.8 0.4-12.1 0.3-0.4 3.9-1.4 7.8-2.5 13.3-3.4 24.9-9.9 35.3-19.9 3.2-3 6.2-5.3 6.8-5.1 0.5 0.3 9.6 7.4 20.3 15.8 19.2 15.5 19.2 15.5 19.2 22.5 0 7.3 1.4 13 4.3 17.5 6.9 11.1 16.8 16.8 29.5 16.8 19.4 0 33.7-14.4 33.7-33.8 0-12.9-6-23.2-17.2-29.8-5.3-3.1-10.2-4.2-18-3.8-6.6 0.2-7.8 0.5-13 3.1-3.3 1.6-6.3 2.7-6.9 2.5-0.8-0.4-36.3-28.3-39.6-31.2-0.3-0.3 0.2-3.3 1.2-6.5 3-9.3 3.8-16.3 3.3-27.8-0.2-7.3-0.8-12.2-2-16.4-1.8-6.8-6.9-18-10.5-23.2-2.5-3.6-2.5-3.6 17.9-23.9 20.2-20.2 20.2-20.2 25.8-17.5 9.1 4.5 16.4 6 27.5 5.6 7.4-0.3 10.7-0.8 15.3-2.3 16.5-5.4 31.8-20.5 36.8-36.5 0.9-2.9 1.9-5.5 2.2-5.8 0.7-0.7 0.7-23.8-0.1-24.6-0.4-0.5-1-2.3-1.6-4.1-4.7-16.5-20.1-32-36.8-37.1-2.3-0.8-4.7-1.6-5.4-2-1.5-0.8-24.1-1-24.8-0.2-0.3 0.3-2.9 1.2-5.7 2.1-8.6 2.8-14.8 6.7-22.2 14.2-5.4 5.4-7.4 8.2-10 13.2-4.3 8.8-6.2 16.3-6.2 26.2 0 10.7 1.6 17.4 6.3 26.9 2.3 4.7 2.3 4.7-18 25-20.3 20.4-20.3 20.4-23.6 18.1-6.7-4.6-17.2-9-25.4-10.8-7.4-1.6-6.8 0.9-6.8-25.8 0-23.6 0-23.6 3.3-25.2 12.5-6.3 19.2-17.1 19.2-31 0-13.3-7.4-25-19.2-30.4-2-0.9-4.2-2-4.9-2.3-1.7-0.9-17.9-0.9-19.4 0.1z"/>
	</g>
</svg>